<mxfile host="Electron" modified="2024-06-15T13:00:45.517Z" agent="Mozilla/5.0 (Macintosh; Intel Mac OS X 10_15_7) AppleWebKit/537.36 (KHTML, like Gecko) draw.io/24.4.13 Chrome/124.0.6367.207 Electron/30.0.6 Safari/537.36" etag="yHOEK4JxK78HPG0FypwD" version="24.4.13" type="device">
  <diagram name="Page-1" id="2hZDVlhv54wEm6DreaMi">
    <mxGraphModel dx="1434" dy="854" grid="1" gridSize="10" guides="1" tooltips="1" connect="1" arrows="1" fold="1" page="1" pageScale="1" pageWidth="827" pageHeight="1169" math="0" shadow="0">
      <root>
        <mxCell id="0" />
        <mxCell id="1" parent="0" />
        <mxCell id="ylvUgUuxlcxqlFbrJkLv-2" value="" style="rounded=0;whiteSpace=wrap;html=1;" vertex="1" parent="1">
          <mxGeometry x="9" y="30" width="810" height="610" as="geometry" />
        </mxCell>
        <mxCell id="ylvUgUuxlcxqlFbrJkLv-3" value="Toll Plaza" style="text;html=1;align=center;verticalAlign=middle;whiteSpace=wrap;rounded=0;fontSize=20;" vertex="1" parent="1">
          <mxGeometry x="20" y="50" width="110" height="30" as="geometry" />
        </mxCell>
        <mxCell id="ylvUgUuxlcxqlFbrJkLv-4" value="" style="endArrow=none;dashed=1;html=1;dashPattern=1 3;strokeWidth=2;rounded=0;exitX=0.002;exitY=0.068;exitDx=0;exitDy=0;exitPerimeter=0;entryX=1.005;entryY=0.067;entryDx=0;entryDy=0;entryPerimeter=0;" edge="1" parent="1">
          <mxGeometry width="50" height="50" relative="1" as="geometry">
            <mxPoint x="9.99999999999989" y="100.61000000000001" as="sourcePoint" />
            <mxPoint x="822.4300000000002" y="100" as="targetPoint" />
          </mxGeometry>
        </mxCell>
        <mxCell id="ylvUgUuxlcxqlFbrJkLv-5" value="List of Toll Added Trips" style="text;html=1;align=center;verticalAlign=middle;whiteSpace=wrap;rounded=0;fontSize=15;" vertex="1" parent="1">
          <mxGeometry x="30" y="130" width="160" height="30" as="geometry" />
        </mxCell>
        <mxCell id="ylvUgUuxlcxqlFbrJkLv-6" value="Download Invoice" style="rounded=1;whiteSpace=wrap;html=1;" vertex="1" parent="1">
          <mxGeometry x="680" y="130" width="120" height="30" as="geometry" />
        </mxCell>
        <mxCell id="ylvUgUuxlcxqlFbrJkLv-7" value="" style="rounded=0;whiteSpace=wrap;html=1;" vertex="1" parent="1">
          <mxGeometry x="30" y="220" width="770" height="70" as="geometry" />
        </mxCell>
        <mxCell id="ylvUgUuxlcxqlFbrJkLv-8" value="TN34AB1090" style="text;html=1;align=center;verticalAlign=middle;whiteSpace=wrap;rounded=0;fontStyle=1" vertex="1" parent="1">
          <mxGeometry x="100" y="240" width="75" height="30" as="geometry" />
        </mxCell>
        <mxCell id="ylvUgUuxlcxqlFbrJkLv-9" value="" style="rounded=1;whiteSpace=wrap;html=1;" vertex="1" parent="1">
          <mxGeometry x="50" y="245" width="20" height="20" as="geometry" />
        </mxCell>
        <mxCell id="ylvUgUuxlcxqlFbrJkLv-10" value="AWE2029-AW23" style="text;html=1;align=center;verticalAlign=middle;whiteSpace=wrap;rounded=0;fontStyle=0" vertex="1" parent="1">
          <mxGeometry x="220" y="240" width="110" height="30" as="geometry" />
        </mxCell>
        <mxCell id="ylvUgUuxlcxqlFbrJkLv-11" value="Chennai - Salem" style="text;html=1;align=center;verticalAlign=middle;whiteSpace=wrap;rounded=0;fontStyle=0" vertex="1" parent="1">
          <mxGeometry x="370" y="240" width="110" height="30" as="geometry" />
        </mxCell>
        <mxCell id="ylvUgUuxlcxqlFbrJkLv-12" value="12/06/2024" style="text;html=1;align=center;verticalAlign=middle;whiteSpace=wrap;rounded=0;fontStyle=0" vertex="1" parent="1">
          <mxGeometry x="520" y="240" width="110" height="30" as="geometry" />
        </mxCell>
        <mxCell id="ylvUgUuxlcxqlFbrJkLv-13" value="2300 RS" style="text;html=1;align=center;verticalAlign=middle;whiteSpace=wrap;rounded=0;fontStyle=0" vertex="1" parent="1">
          <mxGeometry x="660" y="240" width="110" height="30" as="geometry" />
        </mxCell>
        <mxCell id="ylvUgUuxlcxqlFbrJkLv-14" value="" style="rounded=0;whiteSpace=wrap;html=1;" vertex="1" parent="1">
          <mxGeometry x="30" y="320" width="770" height="70" as="geometry" />
        </mxCell>
        <mxCell id="ylvUgUuxlcxqlFbrJkLv-15" value="TN34AB1090" style="text;html=1;align=center;verticalAlign=middle;whiteSpace=wrap;rounded=0;fontStyle=1" vertex="1" parent="1">
          <mxGeometry x="100" y="340" width="75" height="30" as="geometry" />
        </mxCell>
        <mxCell id="ylvUgUuxlcxqlFbrJkLv-16" value="" style="rounded=1;whiteSpace=wrap;html=1;" vertex="1" parent="1">
          <mxGeometry x="50" y="345" width="20" height="20" as="geometry" />
        </mxCell>
        <mxCell id="ylvUgUuxlcxqlFbrJkLv-17" value="AWE2029-AW23" style="text;html=1;align=center;verticalAlign=middle;whiteSpace=wrap;rounded=0;fontStyle=0" vertex="1" parent="1">
          <mxGeometry x="220" y="340" width="110" height="30" as="geometry" />
        </mxCell>
        <mxCell id="ylvUgUuxlcxqlFbrJkLv-18" value="Chennai - Salem" style="text;html=1;align=center;verticalAlign=middle;whiteSpace=wrap;rounded=0;fontStyle=0" vertex="1" parent="1">
          <mxGeometry x="370" y="340" width="110" height="30" as="geometry" />
        </mxCell>
        <mxCell id="ylvUgUuxlcxqlFbrJkLv-19" value="12/06/2024" style="text;html=1;align=center;verticalAlign=middle;whiteSpace=wrap;rounded=0;fontStyle=0" vertex="1" parent="1">
          <mxGeometry x="520" y="340" width="110" height="30" as="geometry" />
        </mxCell>
        <mxCell id="ylvUgUuxlcxqlFbrJkLv-20" value="2300 RS" style="text;html=1;align=center;verticalAlign=middle;whiteSpace=wrap;rounded=0;fontStyle=0" vertex="1" parent="1">
          <mxGeometry x="660" y="340" width="110" height="30" as="geometry" />
        </mxCell>
        <mxCell id="ylvUgUuxlcxqlFbrJkLv-35" value="" style="rounded=0;whiteSpace=wrap;html=1;" vertex="1" parent="1">
          <mxGeometry x="30" y="420" width="770" height="70" as="geometry" />
        </mxCell>
        <mxCell id="ylvUgUuxlcxqlFbrJkLv-36" value="TN34AB1090" style="text;html=1;align=center;verticalAlign=middle;whiteSpace=wrap;rounded=0;fontStyle=1" vertex="1" parent="1">
          <mxGeometry x="100" y="440" width="75" height="30" as="geometry" />
        </mxCell>
        <mxCell id="ylvUgUuxlcxqlFbrJkLv-37" value="" style="rounded=1;whiteSpace=wrap;html=1;" vertex="1" parent="1">
          <mxGeometry x="50" y="445" width="20" height="20" as="geometry" />
        </mxCell>
        <mxCell id="ylvUgUuxlcxqlFbrJkLv-38" value="AWE2029-AW23" style="text;html=1;align=center;verticalAlign=middle;whiteSpace=wrap;rounded=0;fontStyle=0" vertex="1" parent="1">
          <mxGeometry x="220" y="440" width="110" height="30" as="geometry" />
        </mxCell>
        <mxCell id="ylvUgUuxlcxqlFbrJkLv-39" value="Chennai - Salem" style="text;html=1;align=center;verticalAlign=middle;whiteSpace=wrap;rounded=0;fontStyle=0" vertex="1" parent="1">
          <mxGeometry x="370" y="440" width="110" height="30" as="geometry" />
        </mxCell>
        <mxCell id="ylvUgUuxlcxqlFbrJkLv-40" value="12/06/2024" style="text;html=1;align=center;verticalAlign=middle;whiteSpace=wrap;rounded=0;fontStyle=0" vertex="1" parent="1">
          <mxGeometry x="520" y="440" width="110" height="30" as="geometry" />
        </mxCell>
        <mxCell id="ylvUgUuxlcxqlFbrJkLv-41" value="2300 RS" style="text;html=1;align=center;verticalAlign=middle;whiteSpace=wrap;rounded=0;fontStyle=0" vertex="1" parent="1">
          <mxGeometry x="660" y="440" width="110" height="30" as="geometry" />
        </mxCell>
        <mxCell id="ylvUgUuxlcxqlFbrJkLv-42" value="" style="rounded=0;whiteSpace=wrap;html=1;" vertex="1" parent="1">
          <mxGeometry x="30" y="515" width="770" height="70" as="geometry" />
        </mxCell>
        <mxCell id="ylvUgUuxlcxqlFbrJkLv-43" value="TN34AB1090" style="text;html=1;align=center;verticalAlign=middle;whiteSpace=wrap;rounded=0;fontStyle=1" vertex="1" parent="1">
          <mxGeometry x="100" y="535" width="75" height="30" as="geometry" />
        </mxCell>
        <mxCell id="ylvUgUuxlcxqlFbrJkLv-44" value="" style="rounded=1;whiteSpace=wrap;html=1;" vertex="1" parent="1">
          <mxGeometry x="50" y="540" width="20" height="20" as="geometry" />
        </mxCell>
        <mxCell id="ylvUgUuxlcxqlFbrJkLv-45" value="AWE2029-AW23" style="text;html=1;align=center;verticalAlign=middle;whiteSpace=wrap;rounded=0;fontStyle=0" vertex="1" parent="1">
          <mxGeometry x="220" y="535" width="110" height="30" as="geometry" />
        </mxCell>
        <mxCell id="ylvUgUuxlcxqlFbrJkLv-46" value="Chennai - Salem" style="text;html=1;align=center;verticalAlign=middle;whiteSpace=wrap;rounded=0;fontStyle=0" vertex="1" parent="1">
          <mxGeometry x="370" y="535" width="110" height="30" as="geometry" />
        </mxCell>
        <mxCell id="ylvUgUuxlcxqlFbrJkLv-47" value="12/06/2024" style="text;html=1;align=center;verticalAlign=middle;whiteSpace=wrap;rounded=0;fontStyle=0" vertex="1" parent="1">
          <mxGeometry x="520" y="535" width="110" height="30" as="geometry" />
        </mxCell>
        <mxCell id="ylvUgUuxlcxqlFbrJkLv-48" value="2300 RS" style="text;html=1;align=center;verticalAlign=middle;whiteSpace=wrap;rounded=0;fontStyle=0" vertex="1" parent="1">
          <mxGeometry x="660" y="535" width="110" height="30" as="geometry" />
        </mxCell>
        <mxCell id="ylvUgUuxlcxqlFbrJkLv-49" value="" style="verticalLabelPosition=bottom;verticalAlign=top;html=1;shape=mxgraph.basic.tick;fillColor=#f5f5f5;fontColor=#333333;strokeColor=#666666;" vertex="1" parent="1">
          <mxGeometry x="50" y="245" width="20" height="20" as="geometry" />
        </mxCell>
        <mxCell id="ylvUgUuxlcxqlFbrJkLv-50" value="" style="verticalLabelPosition=bottom;verticalAlign=top;html=1;shape=mxgraph.basic.tick;fillColor=#f5f5f5;fontColor=#333333;strokeColor=#666666;" vertex="1" parent="1">
          <mxGeometry x="50" y="445" width="20" height="20" as="geometry" />
        </mxCell>
        <mxCell id="ylvUgUuxlcxqlFbrJkLv-51" style="edgeStyle=orthogonalEdgeStyle;rounded=0;orthogonalLoop=1;jettySize=auto;html=1;exitX=0.5;exitY=1;exitDx=0;exitDy=0;" edge="1" parent="1" source="ylvUgUuxlcxqlFbrJkLv-8" target="ylvUgUuxlcxqlFbrJkLv-8">
          <mxGeometry relative="1" as="geometry" />
        </mxCell>
      </root>
    </mxGraphModel>
  </diagram>
</mxfile>
